<?xml version="1.0" encoding="utf-8"?>
<!-- Generator: Adobe Illustrator 19.1.0, SVG Export Plug-In . SVG Version: 6.00 Build 0)  -->
<svg version="1.1" id="Layer_1" xmlns="http://www.w3.org/2000/svg" xmlns:xlink="http://www.w3.org/1999/xlink" x="0px" y="0px"
	 viewBox="0 0 595.3 841.9" style="enable-background:new 0 0 595.3 841.9;" xml:space="preserve">
<style type="text/css">
	.st0{fill:#FF0000;}
	.st1{fill:#0016DD;}
</style>
<g>
	<path class="st0" d="M515.2,379.3H445l-55-56.9l10-20c4.8-9.6,3.5-21.1-3.3-29.4c-6.8-8.3-17.8-11.8-28.2-9.1L252.6,295
		c-7.6,2.1-14,7.3-17.5,14.5l-47.7,98.8c-6.5,13.6-0.9,29.9,12.7,36.4c13.5,6.5,29.9,0.9,36.4-12.7l42.3-87.6l45.3-12.2L286.4,408
		c-4.8,9.6-3.5,21.1,3.3,29.4l22.3,27.3c-0.9,1.4-1.8,2.9-2.4,4.5l-31.8,75.6l-113.6-28.4c-14.1-3.5-28.5,4.7-32.7,18.6l-20.4,68.1
		c-4.3,14.4,3.9,29.6,18.3,33.9c2.6,0.8,5.3,1.2,7.8,1.2c11.7,0,22.6-7.6,26.1-19.4l13-43.2l111.1,27.8c13,3.3,26.5-3.5,31.7-15.9
		l31.7-75.4l33.3,40.7l-21.5,114.5c-2.5,13.6,5.4,26.9,18.6,31l64.7,20.4c2.7,0.9,5.5,1.3,8.2,1.3c11.6,0,22.3-7.4,26-19.1
		c4.5-14.4-3.4-29.7-17.8-34.2l-41.7-13.2l19.4-103.2c1.5-7.9-0.6-16-5.7-22.3L343,416.6l21.2-42.5l57.7,59.7h93.3
		c15.1,0,27.3-12.2,27.3-27.3S530.3,379.3,515.2,379.3z"/>
	<path class="st0" d="M555.7,130.8H500c-11.9,0-21.9,8-25,18.9c-6.1-1.7-12.4-2.7-19-2.7c-38.6,0-69.9,31.4-69.9,69.9
		c0,38.6,31.4,69.9,69.9,69.9c31.9,0,58.9-21.5,67.2-50.8h32.5c14.3,0,26-11.6,26-26v-53.4C581.7,142.4,570.1,130.8,555.7,130.8z
		 M526,184.3v-1.5l3.8,1.5H526z"/>
</g>
<g>
	<path class="st1" d="M424.4,379.3h-70.2l-55-56.9l10-20c4.8-9.6,3.5-21.1-3.3-29.4c-6.8-8.3-17.8-11.8-28.2-9.1L161.7,295
		c-7.6,2.1-14,7.3-17.5,14.5l-47.7,98.8c-6.5,13.6-0.9,29.9,12.7,36.4c13.5,6.5,29.9,0.9,36.4-12.7l42.3-87.6l45.3-12.2L195.5,408
		c-4.8,9.6-3.5,21.1,3.3,29.4l22.3,27.3c-0.9,1.4-1.8,2.9-2.4,4.5l-31.8,75.6L73.2,516.4c-14.1-3.5-28.5,4.7-32.7,18.6L20,603.2
		c-4.3,14.4,3.9,29.6,18.3,33.9c2.6,0.8,5.3,1.2,7.8,1.2c11.7,0,22.6-7.6,26.1-19.4l13-43.2l111.1,27.8c13,3.3,26.5-3.5,31.7-15.9
		l31.7-75.4l33.3,40.7l-21.5,114.5c-2.5,13.6,5.4,26.9,18.6,31l64.7,20.4c2.7,0.9,5.5,1.3,8.2,1.3c11.6,0,22.3-7.4,26-19.1
		c4.5-14.4-3.4-29.7-17.8-34.2l-41.7-13.2l19.4-103.2c1.5-7.9-0.6-16-5.7-22.3l-91.1-111.6l21.2-42.5l57.7,59.7h93.3
		c15.1,0,27.3-12.2,27.3-27.3S439.4,379.3,424.4,379.3z"/>
	<path class="st1" d="M464.9,130.8h-55.7c-11.9,0-21.9,8-25,18.9c-6.1-1.7-12.4-2.7-19-2.7c-38.6,0-69.9,31.4-69.9,69.9
		c0,38.6,31.4,69.9,69.9,69.9c31.9,0,58.9-21.5,67.2-50.8h32.5c14.3,0,26-11.6,26-26v-53.4C490.8,142.4,479.2,130.8,464.9,130.8z
		 M435.1,184.3v-1.5l3.8,1.5H435.1z"/>
</g>
<g>
	<path d="M464.1,379.3h-70.2l-55-56.9l10-20c4.8-9.6,3.5-21.1-3.3-29.4c-6.8-8.3-17.8-11.8-28.2-9.1L201.5,295
		c-7.6,2.1-14,7.3-17.5,14.5l-47.7,98.8c-6.5,13.6-0.9,29.9,12.7,36.4c13.5,6.5,29.9,0.9,36.4-12.7l42.3-87.6l45.3-12.2L235.3,408
		c-4.8,9.6-3.5,21.1,3.3,29.4l22.3,27.3c-0.9,1.4-1.8,2.9-2.4,4.5l-31.8,75.6L113,516.4c-14.1-3.5-28.5,4.7-32.7,18.6l-20.4,68.1
		c-4.3,14.4,3.9,29.6,18.3,33.9c2.6,0.8,5.3,1.2,7.8,1.2c11.7,0,22.6-7.6,26.1-19.4l13-43.2L236,603.4c13,3.3,26.5-3.5,31.7-15.9
		l31.7-75.4l33.3,40.7l-21.5,114.5c-2.5,13.6,5.4,26.9,18.6,31l64.7,20.4c2.7,0.9,5.5,1.3,8.2,1.3c11.6,0,22.3-7.4,26-19.1
		c4.5-14.4-3.4-29.7-17.8-34.2l-41.7-13.2l19.4-103.2c1.5-7.9-0.6-16-5.7-22.3l-91.1-111.6l21.2-42.5l57.7,59.7h93.3
		c15.1,0,27.3-12.2,27.3-27.3S479.2,379.3,464.1,379.3z"/>
	<path d="M504.6,130.8h-55.7c-11.9,0-21.9,8-25,18.9c-6.1-1.7-12.4-2.7-19-2.7c-38.6,0-69.9,31.4-69.9,69.9
		c0,38.6,31.4,69.9,69.9,69.9c31.9,0,58.9-21.5,67.2-50.8h32.5c14.3,0,26-11.6,26-26v-53.4C530.6,142.4,518.9,130.8,504.6,130.8z
		 M474.9,184.3v-1.5l3.8,1.5H474.9z"/>
</g>
</svg>
